<svg xmlns="http://www.w3.org/2000/svg" xmlns:xlink="http://www.w3.org/1999/xlink" version="1.1" x="0px" y="0px" viewBox="12 5 76 89.99942016601562" enable-background="new 0 0 100 100" xml:space="preserve" preserveAspectRatio="xMidYMid meet" style="width: 100%; height: 100%;" fill="rgb(255,97,0)" fill-opacity="1"><g><path d="M86.111,6.883C84.949,5.72,83.337,5,81.565,5H18.436c-1.774,0-3.385,0.72-4.547,1.883C12.724,8.042,12,9.647,12,11.416   c0,13.321,0,7.705,0,21.026c0,1.76,0.726,3.362,1.889,4.524l0.012,0.008c1.163,1.159,2.771,1.882,4.536,1.882h16.275   c-0.117,6.206-0.19,13.131-0.24,18.606c-0.146,0.048-0.29,0.107-0.431,0.183l-5.521,2.95c-0.837,0.428-1.421,1.289-1.441,2.29   l-0.301,14.662c-0.047,0.589,0.103,1.198,0.472,1.721l8.718,12.348c0.478,0.783,1.083,1.618,1.861,2.496   c0.965,1.088,2.635,1.19,3.726,0.226c1.091-0.961,1.193-2.626,0.227-3.714c-0.631-0.708-1.105-1.404-1.468-2.049   c-0.27-0.479-0.47-0.906-0.627-1.294V66.964h-0.012l0.02-2.591c0.06-7.946,0.218-29.831,0.474-36.982   c0.249-7.119,4.813-6.316,4.935,0.427c0.008,0.502,0.018,1.005,0.032,1.373c0.45,11.735,0.93,23.428,0.93,35.171   c0,1.459,1.187,2.642,2.648,2.642c1.464,0,2.651-1.183,2.651-2.642v-7.867c0.427-0.494,1.012-1.135,1.364-1.356l-0.004-0.008h0.004   c0.048-0.032,0.17-0.095,0.357-0.19c1.005-0.51,1.973-0.462,2.779-0.142c0.796,0.32,1.455,0.87,1.88,1.439   c-0.016,0.118-0.023,0.237-0.023,0.355v7.769c0,1.459,1.186,2.642,2.647,2.642c1.463,0,2.649-1.183,2.649-2.642v-7.769v-0.071   c0.351-0.272,0.729-0.454,1.119-0.55c0.499-0.122,1.023-0.118,1.523,0.005c0.528,0.122,1.033,0.371,1.471,0.72   c0.362,0.288,0.676,0.652,0.914,1.071c-0.008,0.075-0.012,0.154-0.012,0.229v6.364c0,1.459,1.187,2.642,2.649,2.642   s2.649-1.183,2.649-2.642v-3.924c0.26,0.083,0.502,0.182,0.697,0.261c0.526,0.222,1.329,0.949,2.098,1.815   c0.786,0.891,1.429,1.815,1.608,2.405c1.632,5.419-0.079,17.284-0.083,17.315l-1.742,9.343c-0.265,1.428,0.686,2.8,2.118,3.065   c1.438,0.261,2.813-0.688,3.075-2.116l1.763-9.445l0.016-0.103h0.004c0.006-0.036,1.885-13.04-0.081-19.566   c-0.394-1.306-1.475-2.975-2.725-4.383c-1.23-1.388-2.726-2.642-4-3.176c-0.667-0.281-1.65-0.656-2.671-0.814   c-0.298-0.048-0.6-0.075-0.9-0.083c-0.56-0.918-1.274-1.713-2.087-2.365c-1.048-0.836-2.264-1.43-3.544-1.733   c-1.307-0.313-2.683-0.329-4.003,0c-0.741,0.182-1.461,0.467-2.146,0.87c-0.82-0.74-1.802-1.384-2.897-1.819   c-2.021-0.807-4.409-0.958-6.865,0.189l-0.012-0.02V38.857h30.611c1.764,0,3.372-0.724,4.535-1.882l0.011-0.008   C87.273,35.804,88,34.202,88,32.442V11.416C88,9.647,87.277,8.042,86.111,6.883z M34.416,64.354l-0.02,2.599v0.012h-0.01v13.254   l-2.317-3.283l0.256-12.403l2.099-1.119L34.416,64.354z M82.818,32.442c0,0.34-0.14,0.652-0.362,0.878l-0.01,0.012   c-0.228,0.222-0.539,0.36-0.881,0.36H50.578c-0.06-1.762-0.117-3.375-0.167-4.687c-0.018-0.479-0.023-0.866-0.031-1.27   c-0.088-4.881-0.195-10.644-7.417-10.766c-2.047-0.032-3.71,0.229-5.127,1.325c-1.424,1.1-2.289,2.8-2.599,5.541   c-0.018,0.162-0.02,0.324-0.01,0.479c-0.165,1.75-0.297,5.186-0.402,9.378H18.436c-0.341,0-0.655-0.138-0.881-0.36l-0.012-0.012   c-0.222-0.226-0.361-0.538-0.361-0.878c0-13.321,0-7.705,0-21.026c0-0.34,0.145-0.652,0.371-0.882   c0.228-0.226,0.542-0.368,0.883-0.368h63.129c0.34,0,0.653,0.142,0.881,0.368c0.229,0.229,0.372,0.542,0.372,0.882   C82.818,24.737,82.818,19.121,82.818,32.442z"/><path d="M71.934,19.287H55.387c-1.46,0-2.646,1.183-2.646,2.642s1.187,2.642,2.646,2.642h16.547c1.464,0,2.65-1.183,2.65-2.642   S73.397,19.287,71.934,19.287z"/><path d="M31.717,19.287h-3.651c-1.464,0-2.651,1.183-2.651,2.642s1.187,2.642,2.651,2.642h3.651c1.464,0,2.649-1.183,2.649-2.642   S33.182,19.287,31.717,19.287z"/></g></svg>