<svg xmlns="http://www.w3.org/2000/svg" xmlns:xlink="http://www.w3.org/1999/xlink" version="1.1" x="0px" y="0px" viewBox="10.201997756958008 8.618999481201172 79.59487915039062 82.76199340820312" enable-background="new 0 0 100 100" xml:space="preserve" preserveAspectRatio="xMidYMid meet" style="width: 100%; height: 100%;" fill="rgb(255,97,0)" fill-opacity="1"><g><path d="M88.918,20.098l-9.601-9.6c-1.172-1.171-3.072-1.172-4.242,0c-0.057,0.057-0.097,0.121-0.147,0.181   c-0.082,0.066-0.168,0.123-0.244,0.199l-9.601,9.601c-1.172,1.172-1.172,3.071,0,4.242c0.586,0.586,1.354,0.879,2.121,0.879   s1.535-0.293,2.121-0.879l7.865-7.865l7.485,7.485c0.586,0.585,1.354,0.878,2.121,0.878s1.536-0.293,2.121-0.879   C90.09,23.169,90.09,21.27,88.918,20.098z"/><path d="M24.727,19.729l2.679-2.679c1.172-1.171,1.172-3.07,0-4.242c-1.171-1.172-3.071-1.172-4.242,0l-2.679,2.679   l-2.679-2.679c-1.171-1.172-3.071-1.172-4.242,0c-1.172,1.172-1.172,3.071,0,4.242l2.679,2.679l-2.679,2.679   c-1.172,1.172-1.172,3.071,0,4.242c0.585,0.586,1.354,0.879,2.121,0.879s1.536-0.293,2.121-0.879l2.679-2.679l2.679,2.679   c0.585,0.586,1.354,0.879,2.121,0.879s1.536-0.293,2.121-0.879c1.172-1.171,1.172-3.07,0-4.242L24.727,19.729z"/><path d="M55.506,11.632c-1.94-1.943-4.522-3.013-7.27-3.013c-2.747,0-5.329,1.069-7.271,3.012   c-1.942,1.941-3.012,4.524-3.012,7.271c0,2.747,1.07,5.329,3.012,7.27c1.212,1.213,2.674,2.085,4.27,2.569v20.199   c0,1.657,1.343,3,3,3c1.657,0,3-1.343,3-3V28.74c1.596-0.484,3.058-1.356,4.269-2.568c1.943-1.941,3.014-4.523,3.014-7.271   S57.447,13.572,55.506,11.632z M51.262,21.93c-0.807,0.808-1.882,1.253-3.025,1.253c-1.144,0-2.219-0.445-3.029-1.255   c-0.809-0.808-1.254-1.883-1.254-3.026s0.446-2.219,1.255-3.028c0.809-0.809,1.884-1.254,3.028-1.254s2.218,0.444,3.026,1.255   c0.81,0.809,1.255,1.884,1.255,3.027S52.072,21.12,51.262,21.93z"/><path d="M23.494,71.268l-0.009-19.779c-0.001-1.657-1.344-2.999-3-2.999c0,0-0.001,0-0.001,0   c-1.657,0.001-3,1.345-2.999,3.001l0.005,11.714c0,0.025-0.008,0.05-0.008,0.076s0.007,0.051,0.008,0.077l0.003,7.905   c-4.215,1.285-7.291,5.206-7.291,9.836c0,5.67,4.613,10.282,10.282,10.282s10.282-4.612,10.282-10.282   C30.767,76.476,27.699,72.558,23.494,71.268z M20.485,85.381c-2.361,0-4.282-1.921-4.282-4.282s1.921-4.282,4.282-4.282   c2.361,0,4.282,1.921,4.282,4.282S22.846,85.381,20.485,85.381z"/><g><path d="M63.752,82.82c-0.8-1.449-0.29-3.279,1.16-4.08l0,0l0,0l0,0c1.439-0.81,3.27-0.3,4.08,1.15l0,0    c0.81,1.45,0.29,3.271-1.15,4.08l0,0c-0.46,0.26-0.97,0.39-1.46,0.39l0,0C65.332,84.36,64.302,83.801,63.752,82.82z M72.771,76.24    c-1.42-0.85-1.88-2.689-1.029-4.109l0,0c0,0,0,0,0-0.01l0,0c0.85-1.421,2.689-1.881,4.109-1.03l0,0c1.42,0.85,1.891,2.7,1.04,4.12    l0,0c-0.56,0.939-1.56,1.46-2.58,1.46l0,0C73.782,76.671,73.252,76.53,72.771,76.24z"/></g><g><path d="M74.252,51.41c0-1.659,1.34-2.999,3-2.999l0,0c1.66,0,3,1.34,3,2.999l0,0c0,1.66-1.34,3.001-3,3.001l0,0    C75.592,54.411,74.252,53.07,74.252,51.41z M74.252,51.41c0-1.659,1.34-2.999,3-2.999l0,0c1.66,0,3,1.34,3,2.999l0,0    c0,1.66-1.34,3.001-3,3.001l0,0C75.592,54.411,74.252,53.07,74.252,51.41z M74.252,51.41c0-1.659,1.34-2.999,3-2.999l0,0    c1.66,0,3,1.34,3,2.999l0,0c0,1.66-1.34,3.001-3,3.001l0,0C75.592,54.411,74.252,53.07,74.252,51.41z M74.252,51.41    c0-1.659,1.34-2.999,3-2.999l0,0c1.66,0,3,1.34,3,2.999l0,0c0,1.66-1.34,3.001-3,3.001l0,0    C75.592,54.411,74.252,53.07,74.252,51.41z M74.252,39.801c0-1.66,1.34-3,3-3l0,0c1.66,0,3,1.34,3,3l0,0c0,1.65-1.34,3-3,3l0,0    C75.592,42.801,74.252,41.451,74.252,39.801z M74.252,28.181c0-1.66,1.34-3,3-3l0,0c1.66,0,3,1.34,3,3l0,0c0,1.66-1.34,3-3,3l0,0    C75.592,31.181,74.252,29.841,74.252,28.181z"/></g><path d="M52.478,63.248l3.678-3.678c1.172-1.171,1.172-3.071,0-4.242c-1.172-1.172-3.07-1.172-4.242,0l-3.677,3.678   l-3.678-3.678c-1.171-1.172-3.071-1.172-4.242,0c-1.172,1.171-1.172,3.071,0,4.242l3.678,3.678l-3.678,3.678   c-1.172,1.171-1.172,3.071,0,4.242c0.585,0.586,1.354,0.879,2.121,0.879s1.536-0.293,2.121-0.879l3.678-3.678l3.677,3.678   c0.586,0.586,1.354,0.879,2.121,0.879s1.535-0.293,2.121-0.879c1.172-1.171,1.172-3.071,0-4.242L52.478,63.248z"/><path d="M74.252,51.41c0-1.659,1.34-2.999,3-2.999l0,0c1.66,0,3,1.34,3,2.999l0,0c0,1.66-1.34,3.001-3,3.001l0,0   C75.592,54.411,74.252,53.07,74.252,51.41z"/><path d="M74.252,62.41c0-1.66,1.34-3,3-3l0,0c1.66,0,3,1.34,3,3l0,0c0,1.66-1.34,3.001-3,3.001l0,0   C75.592,65.411,74.252,64.07,74.252,62.41z"/></g></svg>